<svg xmlns="http://www.w3.org/2000/svg" xmlns:xlink="http://www.w3.org/1999/xlink" width="1029" zoomAndPan="magnify" viewBox="0 0 771.75 604.499982" height="806" preserveAspectRatio="xMidYMid meet" version="1.2"><defs/><g id="774d7d1f5c"><g style="fill:#f3fadc;fill-opacity:1;"><g transform="translate(270.408355, 336.092261)"><path style="stroke:none" d="M 143.703125 -205.0625 C 143.304688 -205.0625 143.109375 -205.257812 143.109375 -205.65625 C 143.109375 -206.25 143.304688 -206.546875 143.703125 -206.546875 L 182.9375 -206.546875 C 183.53125 -206.546875 183.828125 -206.25 183.828125 -205.65625 C 183.828125 -205.257812 183.53125 -205.0625 182.9375 -205.0625 C 177.820312 -205.0625 172.3125 -203.289062 166.40625 -199.75 C 160.507812 -196.21875 155.890625 -191.894531 152.546875 -186.78125 L 152.546875 -186.484375 C 152.347656 -186.484375 152.25 -186.484375 152.25 -186.484375 L 151.953125 -185.59375 L 107.703125 -114.78125 L 154.609375 -19.46875 C 157.367188 -14.351562 161.5 -9.976562 167 -6.34375 C 172.507812 -2.707031 177.820312 -0.890625 182.9375 -0.890625 C 183.53125 -0.890625 183.828125 -0.59375 183.828125 0 C 183.828125 0.59375 183.53125 0.890625 182.9375 0.890625 L 136.609375 0.890625 C 136.804688 0.890625 136.804688 0.890625 136.609375 0.890625 L 117.140625 0.890625 C 116.546875 0.890625 116.25 0.59375 116.25 0 C 116.25 -0.59375 116.546875 -0.890625 117.140625 -0.890625 C 121.859375 -0.890625 125.203125 -2.363281 127.171875 -5.3125 C 129.335938 -9.050781 129.140625 -13.671875 126.578125 -19.171875 L 91.765625 -89.40625 L 59.890625 -38.0625 L 59.890625 -19.765625 C 59.890625 -14.453125 61.707031 -9.976562 65.34375 -6.34375 C 68.988281 -2.707031 73.46875 -0.890625 78.78125 -0.890625 C 79.175781 -0.890625 79.375 -0.59375 79.375 0 C 79.375 0.59375 79.175781 0.890625 78.78125 0.890625 L 15.640625 0.890625 C 15.046875 0.890625 14.75 0.59375 14.75 0 C 14.75 -0.59375 15.046875 -0.890625 15.640625 -0.890625 C 20.753906 -0.890625 25.175781 -2.707031 28.90625 -6.34375 C 32.644531 -9.976562 34.515625 -14.453125 34.515625 -19.765625 L 34.515625 -186.1875 C 34.515625 -191.300781 32.644531 -195.722656 28.90625 -199.453125 C 25.175781 -203.191406 20.753906 -205.0625 15.640625 -205.0625 C 15.046875 -205.0625 14.75 -205.257812 14.75 -205.65625 C 14.75 -206.25 15.046875 -206.546875 15.640625 -206.546875 L 78.78125 -206.546875 C 79.175781 -206.546875 79.375 -206.25 79.375 -205.65625 C 79.375 -205.257812 79.175781 -205.0625 78.78125 -205.0625 C 73.46875 -205.0625 68.988281 -203.191406 65.34375 -199.453125 C 61.707031 -195.722656 59.890625 -191.300781 59.890625 -186.1875 L 59.890625 -41.015625 L 150.484375 -186.484375 L 151.078125 -187.359375 C 154.222656 -192.867188 154.8125 -197.394531 152.84375 -200.9375 C 151.269531 -203.6875 148.222656 -205.0625 143.703125 -205.0625 Z M 143.703125 -205.0625 "/></g></g><g style="fill:#f3fadc;fill-opacity:1;"><g transform="translate(244.660092, 423.299908)"><path style="stroke:none" d="M 24.890625 33.1875 C 24.890625 42.238281 27.40625 50.03125 32.4375 56.5625 C 37.46875 63.101562 43.878906 68.132812 51.671875 71.65625 C 59.460938 75.175781 67.632812 76.9375 76.1875 76.9375 C 86.914062 76.9375 97.347656 75.050781 107.484375 71.28125 C 117.628906 67.507812 127.226562 62.351562 136.28125 55.8125 C 145.332031 49.28125 153.628906 41.90625 161.171875 33.6875 C 168.710938 25.476562 175.164062 16.929688 180.53125 8.046875 C 176.84375 8.546875 172.273438 9.507812 166.828125 10.9375 C 161.378906 12.363281 155.632812 14.039062 149.59375 15.96875 C 143.5625 17.894531 137.820312 19.863281 132.375 21.875 C 126.925781 23.882812 122.359375 25.769531 118.671875 27.53125 C 114.984375 29.289062 112.722656 30.675781 111.890625 31.6875 C 108.203125 36.707031 104.132812 41.0625 99.6875 44.75 C 95.25 48.4375 91.1875 50.28125 87.5 50.28125 C 85.320312 50.28125 83.894531 49.816406 83.21875 48.890625 C 82.550781 47.972656 82.21875 46.675781 82.21875 45 C 82.21875 43.15625 83.640625 41.269531 86.484375 39.34375 C 89.335938 37.414062 92.691406 35.53125 96.546875 33.6875 C 100.398438 31.84375 103.796875 30.332031 106.734375 29.15625 C 109.671875 27.988281 111.222656 27.320312 111.390625 27.15625 C 112.898438 25.476562 114.195312 23.296875 115.28125 20.609375 C 116.375 17.929688 116.921875 14.5 116.921875 10.3125 C 116.921875 2.769531 115.242188 -3.175781 111.890625 -7.53125 C 108.535156 -11.894531 104.21875 -15 98.9375 -16.84375 C 93.65625 -18.6875 88.164062 -19.609375 82.46875 -19.609375 C 72.75 -19.609375 63.488281 -17.300781 54.6875 -12.6875 C 45.882812 -8.082031 38.71875 -1.800781 33.1875 6.15625 C 27.65625 14.125 24.890625 23.132812 24.890625 33.1875 Z M 306.5 -169.96875 L 306 -170.46875 C 293.925781 -168.96875 281.8125 -166.078125 269.65625 -161.796875 C 257.507812 -157.523438 246.363281 -152.078125 236.21875 -145.453125 C 226.082031 -138.835938 217.910156 -131.296875 211.703125 -122.828125 C 205.503906 -114.359375 202.40625 -105.179688 202.40625 -95.296875 C 202.40625 -89.085938 204.457031 -83.765625 208.5625 -79.328125 C 212.675781 -74.890625 218.164062 -72.753906 225.03125 -72.921875 C 231.90625 -85.148438 238.316406 -95.875 244.265625 -105.09375 C 250.222656 -114.320312 256.300781 -122.625 262.5 -130 C 268.695312 -137.375 275.359375 -144.242188 282.484375 -150.609375 C 289.609375 -156.984375 297.613281 -163.4375 306.5 -169.96875 Z M 192.859375 -97.8125 C 192.859375 -106.695312 195.160156 -114.785156 199.765625 -122.078125 C 204.378906 -129.367188 210.582031 -135.863281 218.375 -141.5625 C 226.164062 -147.257812 234.796875 -152.242188 244.265625 -156.515625 C 253.742188 -160.796875 263.382812 -164.316406 273.1875 -167.078125 C 282.988281 -169.847656 292.289062 -171.941406 301.09375 -173.359375 C 309.894531 -174.785156 317.394531 -175.5 323.59375 -175.5 C 325.269531 -175.5 326.109375 -175.082031 326.109375 -174.25 C 326.109375 -173.570312 324.679688 -172.859375 321.828125 -172.109375 C 318.984375 -171.359375 315.128906 -169.804688 310.265625 -167.453125 C 305.410156 -165.109375 299.878906 -161.171875 293.671875 -155.640625 C 287.472656 -150.109375 281.019531 -142.144531 274.3125 -131.75 C 266.101562 -119.007812 259.734375 -108.15625 255.203125 -99.1875 C 250.679688 -90.21875 246.238281 -81.546875 241.875 -73.171875 C 244.5625 -73.503906 247.664062 -74.46875 251.1875 -76.0625 C 254.707031 -77.65625 257.804688 -79.289062 260.484375 -80.96875 C 266.359375 -84.65625 270.171875 -87.835938 271.921875 -90.515625 C 273.679688 -93.203125 274.984375 -94.546875 275.828125 -94.546875 C 276.660156 -94.546875 277.078125 -94.207031 277.078125 -93.53125 C 277.078125 -93.363281 276.238281 -92.191406 274.5625 -90.015625 C 272.894531 -87.835938 270.425781 -85.320312 267.15625 -82.46875 C 263.882812 -79.625 259.941406 -76.941406 255.328125 -74.421875 C 250.722656 -71.910156 245.40625 -70.148438 239.375 -69.140625 C 232.664062 -57.410156 226.25 -45.675781 220.125 -33.9375 C 214.007812 -22.207031 207.265625 -10.726562 199.890625 0.5 C 207.429688 -1.84375 214.175781 -4.859375 220.125 -8.546875 C 226.082031 -12.234375 231.15625 -15.921875 235.34375 -19.609375 C 241.550781 -24.972656 245.867188 -29.289062 248.296875 -32.5625 C 250.722656 -35.832031 252.1875 -37.46875 252.6875 -37.46875 C 253.695312 -37.46875 254.203125 -36.960938 254.203125 -35.953125 C 254.203125 -35.617188 253.238281 -34.316406 251.3125 -32.046875 C 249.382812 -29.785156 246.992188 -27.1875 244.140625 -24.25 C 241.296875 -21.320312 238.53125 -18.769531 235.84375 -16.59375 C 230.820312 -12.40625 224.914062 -8.253906 218.125 -4.140625 C 211.332031 -0.0351562 203.914062 3.101562 195.875 5.28125 C 189.664062 14.332031 182.367188 23.257812 173.984375 32.0625 C 165.609375 40.863281 156.515625 48.863281 146.703125 56.0625 C 136.898438 63.269531 126.550781 69.050781 115.65625 73.40625 C 104.757812 77.769531 93.613281 79.953125 82.21875 79.953125 C 69.3125 79.953125 58.207031 77.769531 48.90625 73.40625 C 39.601562 69.050781 32.4375 62.976562 27.40625 55.1875 C 22.375 47.394531 19.859375 38.46875 19.859375 28.40625 C 19.859375 20.53125 21.453125 13.113281 24.640625 6.15625 C 27.828125 -0.800781 32.1875 -6.914062 37.71875 -12.1875 C 43.25 -17.46875 49.535156 -21.617188 56.578125 -24.640625 C 63.617188 -27.660156 70.992188 -29.171875 78.703125 -29.171875 C 86.078125 -29.171875 92.945312 -27.785156 99.3125 -25.015625 C 105.6875 -22.253906 110.882812 -18.191406 114.90625 -12.828125 C 118.925781 -7.460938 120.9375 -0.753906 120.9375 7.296875 C 120.9375 10.304688 120.554688 13.234375 119.796875 16.078125 C 119.046875 18.929688 118.253906 21.785156 117.421875 24.640625 C 127.984375 20.285156 138.710938 16.265625 149.609375 12.578125 C 160.503906 8.890625 171.566406 6.035156 182.796875 4.015625 C 187.484375 -4.023438 192.257812 -12.613281 197.125 -21.75 C 201.988281 -30.882812 206.679688 -39.640625 211.203125 -48.015625 C 215.734375 -56.398438 219.675781 -63.359375 223.03125 -68.890625 C 218 -68.890625 213.175781 -70.019531 208.5625 -72.28125 C 203.957031 -74.550781 200.1875 -77.863281 197.25 -82.21875 C 194.320312 -86.570312 192.859375 -91.769531 192.859375 -97.8125 Z M 192.859375 -97.8125 "/></g></g></g></svg>